PathFileType	4	(X/Y/Z)	pose_F01_0-91.trc
DataRate	CameraRate	NumFrames	NumMarkers	Units	OrigDataRate	OrigDataStartFrame	OrigNumFrames
30	30	6	21	m	30	0	91
Frame#	Time	CHip			RHip			RKnee			RAnkle			RBigToe			RSmallToe			RHeel			LHip			LKnee			LAnkle			LBigToe			LSmallToe			LHeel			Neck			Nose			RShoulder			RElbow			RWrist			LShoulder			LElbow			LWrist			
		X1	Y1	Z1	X2	Y2	Z2	X3	Y3	Z3	X4	Y4	Z4	X5	Y5	Z5	X6	Y6	Z6	X7	Y7	Z7	X8	Y8	Z8	X9	Y9	Z9	X10	Y10	Z10	X11	Y11	Z11	X12	Y12	Z12	X13	Y13	Z13	X14	Y14	Z14	X15	Y15	Z15	X16	Y16	Z16	X17	Y17	Z17	X18	Y18	Z18	X19	Y19	Z19	X20	Y20	Z20	X21	Y21	Z21	
0	0.0	-0.16903750894304279	1.8253872649116178	-0.5808144321028137	-0.17886689710194073	1.8233902487700941	-0.5180277592677097	-0.1753798917589817	1.7119737658489427	-0.5071405194401692	-0.18465895549096709	1.6026698688144996	-0.5125370694177418	-0.21025984995374006	1.5732794914261583	-0.456483663157718	-0.2039611467975568	1.5749592409112951	-0.44129438244540403	-0.17528185167636942	1.5964527702981515	-0.510324735884842	-0.16322581432514618	1.8372850876258133	-0.654780375538424	-0.16576118208437202	1.7183912185123738	-0.6138402103231101	-0.16049341561814517	1.6070472715749022	-0.6174575963592008	-0.19002173497800465	1.5697150941443765	-0.5909086605198018	-0.16856964538228678	1.5740615711618153	-0.6183992716575952	-0.14752593318624607	1.5971577628303084	-0.5959822444357815	-0.16013321019591498	1.9873570070125894	-0.6382678349694942	-0.18456292101305324	2.0380418356158922	-0.6103072212708085	-0.17422809545744936	1.9788120167390186	-0.550334433085621	-0.1776256368752053	1.8940611487158896	-0.4913243697673202	-0.18969186168889637	1.820027791499116	-0.4578278622947334	-0.15415207878876225	1.9896592548730987	-0.7132445298088053	-5.205811682253402	1.5885966378776244	4.503959674470127	-0.1669910978402987	1.8260390829095874	-0.7128268019293733
1	0.03333333333333333	-0.16983819036356612	1.8280662309005906	-0.5843410976016442	-0.17969613226335696	1.8261207688242174	-0.521594806337605	-0.17605137290005501	1.7133522423897956	-0.5107271182876318	-0.18366801169477243	1.6024674522263502	-0.509358591357502	-0.21006137758093213	1.5721455033032934	-0.45642591182675435	-0.20394742915795927	1.5750896202141131	-0.44099295737161825	-0.1755103991327893	1.5953204593820889	-0.5097467238968997	-0.16323175883891836	1.837383364920445	-0.6548126434984172	-0.16443712228427118	1.718570704869356	-0.6193046166609908	-0.16056989216407158	1.6043145010399134	-0.6171702899296333	-0.18990328430576972	1.5686186116740264	-0.5910603076094025	-0.17137116630812974	1.572445198395504	-0.6195377094879286	-0.14848860720600537	1.5944213303157522	-0.598866397694231	-0.16009391375802173	1.9874273893185403	-0.6383651043002395	-0.18457038995223043	2.037977303562453	-0.6103036815992061	-0.17428209701549946	1.980130882283027	-0.5508209208807007	-0.17826727877396303	1.8964516931806819	-0.4946977189692435	-0.19019763704062762	1.8236930341356272	-0.4616378451155461	-0.15200829903860394	1.989829471328798	-0.7155572174549475	-3.9399001417436748	1.6684946899867266	3.1923670889848585	-0.16449916614045287	1.8274908651516786	-0.7153767702444928
2	0.06666666666666667	-0.17063887178408946	1.8307451968895634	-0.5878677631004747	-0.18052536742477318	1.8288512888783406	-0.5251618534075003	-0.17672285404112834	1.7147307189306484	-0.5143137171350944	-0.18267706789857777	1.6022650356382009	-0.5061801132972623	-0.2098629052081242	1.5710115151804285	-0.4563681604957907	-0.20393371151836173	1.5752199995169311	-0.4406915322978325	-0.17573894658920916	1.5941881484660263	-0.5091687119089574	-0.16323770335269053	1.8374816422150766	-0.6548449114584103	-0.16311306248417035	1.718750191226338	-0.6247690229988715	-0.160646368709998	1.6015817305049245	-0.6168829835000658	-0.1897848336335348	1.5675221292036763	-0.5912119546990032	-0.1741726872339727	1.5708288256291925	-0.620676147318262	-0.14945128122576468	1.591684897801196	-0.6017505509526805	-0.1600546173201285	1.9874977716244913	-0.6384623736309848	-0.18457785889140763	2.037912771509014	-0.6103001419276037	-0.17433609857354956	1.9814497478270354	-0.5513074086757803	-0.17890892067272077	1.898842237645474	-0.49807106817116686	-0.19070341239235886	1.8273582767721384	-0.46544782793635886	-0.14986451928844563	1.9899996877844974	-0.7178699051010897	-2.6739886012339475	1.7483927420958287	1.880774503499591	-0.16200723444060705	1.8289426473937698	-0.7179267385596122
3	0.1	-0.1714395532046128	1.8334241628785362	-0.5913944285993052	-0.1813546025861894	1.8315818089324638	-0.5287289004773956	-0.17739433518220166	1.7161091954715013	-0.517900315982557	-0.1816861241023831	1.6020626190500515	-0.5030016352370227	-0.20966443283531627	1.5698775270575636	-0.45631040916482707	-0.2039199938787642	1.5753503788197492	-0.4403901072240467	-0.17596749404562903	1.5930558375499637	-0.5085906999210151	-0.1632436478664627	1.8375799195097082	-0.6548771794184034	-0.1617890026840695	1.7189296775833203	-0.6302334293367522	-0.1607228452559244	1.5988489599699356	-0.6165956770704982	-0.18966638296129987	1.5664256467333262	-0.5913636017886039	-0.17697420815981565	1.569212452862881	-0.6218145851485954	-0.15041395524552398	1.5889484652866397	-0.60463470421113	-0.16001532088223525	1.9875681539304422	-0.6385596429617301	-0.18458532783058482	2.037848239455575	-0.6102966022560014	-0.17439010013159967	1.9827686133710438	-0.55179389647086	-0.1795505625714785	1.9012327821102664	-0.5014444173730902	-0.1912091877440901	1.8310235194086495	-0.4692578107571716	-0.14772073953828732	1.9901699042401968	-0.720182592747232	-1.4080770607242203	1.828290794204931	0.5691819180143234	-0.15951530274076123	1.830394429635861	-0.7204767068747316
4	0.13333333333333333	-0.17224023462513613	1.836103128867509	-0.5949210940981358	-0.18218383774760563	1.834312328986587	-0.5322959475472909	-0.17806581632327498	1.7174876720123542	-0.5214869148300196	-0.18069518030618845	1.6018602024619022	-0.499823157176783	-0.20946596046250834	1.5687435389346986	-0.45625265783386343	-0.20390627623916666	1.5754807581225672	-0.4400886821502609	-0.1761960415020489	1.5919235266339011	-0.5080126879330729	-0.16324959238023487	1.8376781968043399	-0.6549094473783965	-0.16046494288396868	1.7191091639403024	-0.6356978356746329	-0.1607993218018508	1.5961161894349467	-0.6163083706409307	-0.18954793228906494	1.565329164262976	-0.5915152488782046	-0.17977572908565861	1.5675960800965696	-0.6229530229789288	-0.15137662926528328	1.5862120327720834	-0.6075188574695795	-0.159976024444342	1.987638536236393	-0.6386569122924753	-0.184592796769762	2.0377837074021357	-0.610293062584399	-0.17444410168964977	1.9840874789150522	-0.5522803842659396	-0.18019220447023623	1.9036233265750586	-0.5048177665750135	-0.19171496309582134	1.8346887620451606	-0.47306779357798434	-0.145576959788129	1.9903401206958962	-0.7224952803933742	-0.14216552021449316	1.908188846314033	-0.7424106674709443	-0.1570233710409154	1.8318462118779522	-0.7230266751898511
5	0.16666666666666666	-0.17304091604565947	1.8387820948564817	-0.5984477595969663	-0.18301307290902186	1.8370428490407102	-0.5358629946171862	-0.1787372974643483	1.718866148553207	-0.5250735136774822	-0.1797042365099938	1.6016577858737528	-0.4966446791165433	-0.20926748808970042	1.5676095508118337	-0.4561949065028998	-0.20389255859956912	1.5756111374253852	-0.43978725707647515	-0.17642458895846877	1.5907912157178385	-0.5074346759451306	-0.16325553689400704	1.8377764740989715	-0.6549417153383896	-0.15914088308386784	1.7192886502972846	-0.6411622420125136	-0.1608757983477772	1.5933834188999578	-0.6160210642113632	-0.18942948161683001	1.564232681792626	-0.5916668959678053	-0.18257725001150157	1.5659797073302582	-0.6240914608092623	-0.15233930328504258	1.5834756002575272	-0.6104030107280289	-0.15993672800644876	1.987708918542344	-0.6387541816232206	-0.1846002657089392	2.0377191753486965	-0.6102895229127966	-0.17449810324769988	1.9854063444590606	-0.5527668720610193	-0.18083384636899397	1.9060138710398509	-0.5081911157769369	-0.19222073844755258	1.8383540046816718	-0.4768777763987971	-0.1434331800379707	1.9905103371515955	-0.7248079680395164	-0.14185060005551486	1.9081745540329151	-0.7422853588165278	-0.15453143934106958	1.8332979941200434	-0.7255766435049705
